<svg id="Componente_15_6" data-name="Componente 15 – 6" xmlns="http://www.w3.org/2000/svg" width="49" height="49" viewBox="0 0 49 49">
  <g id="Grupo_199" data-name="Grupo 199">
    <rect id="Rectángulo_296" data-name="Rectángulo 296" width="49" height="49" rx="7" fill="#632678"/>
  </g>
  <path id="Icon_awesome-file-upload" data-name="Icon awesome-file-upload" d="M15.582,9.46V0H1.669A1.665,1.665,0,0,0,0,1.669V33.946a1.665,1.665,0,0,0,1.669,1.669H25.042a1.665,1.665,0,0,0,1.669-1.669V11.13h-9.46A1.674,1.674,0,0,1,15.582,9.46Zm4.534,15.026H15.582v5.565a1.113,1.113,0,0,1-1.113,1.113H12.243a1.113,1.113,0,0,1-1.113-1.113V24.486H6.6a1.113,1.113,0,0,1-.784-1.9l6.707-6.657a1.186,1.186,0,0,1,1.672,0L20.9,22.583A1.113,1.113,0,0,1,20.116,24.486ZM26.224,7.3,19.414.487A1.668,1.668,0,0,0,18.232,0h-.424V8.9h8.9V8.479A1.664,1.664,0,0,0,26.224,7.3Z" transform="translate(11.569 6.579)" fill="#fff"/>
</svg>
