<svg xmlns="http://www.w3.org/2000/svg" width="438.43" height="178.56" viewBox="0 0 438.43 178.56">
  <g id="Grupo_952" data-name="Grupo 952" transform="translate(-0.02 0)">
    <circle id="Elipse_345" data-name="Elipse 345" cx="69.62" cy="69.62" r="69.62" transform="translate(19.95 18.72)" fill="#ffcb48"/>
    <path id="Trazado_744" data-name="Trazado 744" d="M2046.77,890.42a8.91,8.91,0,0,1,4.37.42,7.481,7.481,0,0,1,4.15,4.37q1.44,3.66,2.86,7.32l27.6,70.88c1.16,3,1,5.74-1.26,8.11a8.145,8.145,0,0,1-2.86,1.92q-19.23,7.57-38.52,15c-4.17,1.62-8.11-.24-9.78-4.53q-12.86-33-25.7-66c-1.44-3.7-2.78-7.45-4.36-11.1s-1.63-7.46,2.62-10.49Zm5.16,11.18-42.25,16.45,23.24,59.68,42.25-16.45Zm-23.91.85-9,3.52c-1.13.44-1.37,1-.92,2.19s1.07,1.49,2.15,1.07l18-7c1.07-.42,1.31-1.07.85-2.24s-1-1.43-2.07-1Zm28.41,73.29a4.62,4.62,0,1,0,3.539.056,4.59,4.59,0,0,0-3.539-.056Z" transform="translate(-1956.7 -858.27)" fill="#632678"/>
    <g id="MC">
      <g id="Grupo_952-2" data-name="Grupo 952">
        <path id="Trazado_745" data-name="Trazado 745" d="M2272.63,885.11V991.19h-25.84V927.57l-23.73,63.62h-20.85l-23.88-63.77v63.77h-25.84V885.11H2183l29.77,73.44,29.47-73.44Z" transform="translate(-1956.7 -858.27)" fill="#632678"/>
        <path id="Trazado_746" data-name="Trazado 746" d="M2293.63,910a48.632,48.632,0,0,1,19-19.19,55,55,0,0,1,27.58-6.88q18.89,0,32.34,10t18,27.21h-28.41a23,23,0,0,0-9-10.13,25.269,25.269,0,0,0-13.22-3.48q-11.94,0-19.35,8.32t-7.4,22.21q0,13.9,7.4,22.21t19.35,8.31a25.261,25.261,0,0,0,13.22-3.47,23,23,0,0,0,9-10.13h28.41q-4.53,17.24-18,27.13t-32.34,9.9a55,55,0,0,1-27.58-6.88,48.749,48.749,0,0,1-19-19.11q-6.8-12.24-6.8-28a57,57,0,0,1,6.8-28.02Z" transform="translate(-1956.7 -858.27)" fill="#632678"/>
      </g>
      <g id="Grupo_953" data-name="Grupo 953">
        <path id="Trazado_747" data-name="Trazado 747" d="M2272.63,885.11V991.19h-25.84V927.57l-23.73,63.62h-20.85l-23.88-63.77v63.77h-25.84V885.11H2183l29.77,73.44,29.47-73.44Z" transform="translate(-1956.7 -858.27)" fill="#632678"/>
        <path id="Trazado_748" data-name="Trazado 748" d="M2293.64,910a48.541,48.541,0,0,1,19-19.19,55,55,0,0,1,27.58-6.88q18.89,0,32.34,10t18,27.2h-28.41a23,23,0,0,0-9-10.12,25.268,25.268,0,0,0-13.22-3.48q-11.94,0-19.35,8.32t-7.4,22.21q0,13.9,7.4,22.21t19.35,8.32a25.27,25.27,0,0,0,13.22-3.48,23,23,0,0,0,9-10.13h28.41q-4.53,17.24-18,27.13t-32.34,9.9a55,55,0,0,1-27.58-6.88,48.66,48.66,0,0,1-19-19.11q-6.81-12.24-6.81-28a56.943,56.943,0,0,1,6.81-28.02Z" transform="translate(-1956.7 -858.27)" fill="#632678"/>
      </g>
    </g>
    <g id="Grupo_217" data-name="Grupo 217">
      <g id="Móviles_coporativos" data-name="Móviles coporativos">
        <g id="Grupo_954" data-name="Grupo 954">
          <path id="Trazado_749" data-name="Trazado 749" d="M2170.34,1009.59v16.48h-2.17v-12.29l-5.47,12.29h-1.53l-5.5-12.31v12.31h-2.16v-16.48h2.33l6.09,13.62,6.1-13.62Z" transform="translate(-1956.7 -858.27)" fill="#632678"/>
          <path id="Trazado_750" data-name="Trazado 750" d="M2176.37,1025.45a6,6,0,0,1-2.33-2.37,7.323,7.323,0,0,1-.85-3.56,7.093,7.093,0,0,1,.87-3.54,6,6,0,0,1,2.37-2.35,7.27,7.27,0,0,1,6.71,0,6.059,6.059,0,0,1,2.37,2.34,7.62,7.62,0,0,1,0,7.11,6.263,6.263,0,0,1-2.42,2.37,7,7,0,0,1-3.38.83,6.73,6.73,0,0,1-3.34-.83Zm5.51-1.62a4.221,4.221,0,0,0,1.66-1.64,5.272,5.272,0,0,0,.63-2.67,5.381,5.381,0,0,0-.62-2.67,4,4,0,0,0-1.62-1.63,4.611,4.611,0,0,0-2.17-.53,4.531,4.531,0,0,0-2.17.53,4,4,0,0,0-1.59,1.63,6.429,6.429,0,0,0-.01,5.36,3.9,3.9,0,0,0,1.56,1.63,4.33,4.33,0,0,0,2.14.54,4.619,4.619,0,0,0,2.19-.55Zm.24-14.66-5.07,2.71v-1.62l5.07-3Z" transform="translate(-1956.7 -858.27)" fill="#632678"/>
          <path id="Trazado_751" data-name="Trazado 751" d="M2194.09,1024.07l4-11h2.31l-5.12,13h-2.52l-5.12-13H2190Z" transform="translate(-1956.7 -858.27)" fill="#632678"/>
          <path id="Trazado_752" data-name="Trazado 752" d="M2202.66,1010.47a1.43,1.43,0,0,1-.43-1,1.45,1.45,0,0,1,.43-1,1.431,1.431,0,0,1,1.05-.43,1.34,1.34,0,0,1,1,.43,1.439,1.439,0,0,1,.42,1,1.42,1.42,0,0,1-.42,1,1.34,1.34,0,0,1-1,.43A1.431,1.431,0,0,1,2202.66,1010.47Zm2.1,2.55v13h-2.17v-13Z" transform="translate(-1956.7 -858.27)" fill="#632678"/>
          <path id="Trazado_753" data-name="Trazado 753" d="M2210.61,1008.45v17.62h-2.16v-17.62Z" transform="translate(-1956.7 -858.27)" fill="#632678"/>
          <path id="Trazado_754" data-name="Trazado 754" d="M2226.13,1020.35h-10.42a4.212,4.212,0,0,0,1.32,3,4.16,4.16,0,0,0,2.91,1.09,4,4,0,0,0,2.35-.66,3.45,3.45,0,0,0,1.32-1.75h2.33a5.6,5.6,0,0,1-2.09,3.06,6.311,6.311,0,0,1-3.91,1.18,6.68,6.68,0,0,1-3.32-.83,5.94,5.94,0,0,1-2.29-2.37,7.32,7.32,0,0,1-.84-3.56,7.475,7.475,0,0,1,.81-3.55,5.71,5.71,0,0,1,2.28-2.34,6.69,6.69,0,0,1,3.36-.82,6.55,6.55,0,0,1,3.29.81,5.659,5.659,0,0,1,2.2,2.22,6.531,6.531,0,0,1,.77,3.2A11.979,11.979,0,0,1,2226.13,1020.35Zm-2.71-3.89a3.618,3.618,0,0,0-1.49-1.36,4.629,4.629,0,0,0-2.08-.46,4,4,0,0,0-2.8,1.05,4.25,4.25,0,0,0-1.32,2.9H2224a4.069,4.069,0,0,0-.58-2.13Z" transform="translate(-1956.7 -858.27)" fill="#632678"/>
          <path id="Trazado_755" data-name="Trazado 755" d="M2231,1025.77a4.56,4.56,0,0,1-1.88-1.43,3.728,3.728,0,0,1-.76-2.11h2.23a2.222,2.222,0,0,0,.92,1.6,3.509,3.509,0,0,0,2.15.62,3.191,3.191,0,0,0,2-.55,1.7,1.7,0,0,0,.709-1.38,1.34,1.34,0,0,0-.76-1.27,10.462,10.462,0,0,0-2.36-.83,17,17,0,0,1-2.37-.77,4.18,4.18,0,0,1-1.57-1.17,3.049,3.049,0,0,1-.65-2,3.1,3.1,0,0,1,.59-1.83,4.07,4.07,0,0,1,1.69-1.33,6.193,6.193,0,0,1,2.5-.48,5.33,5.33,0,0,1,3.5,1.09,3.931,3.931,0,0,1,1.43,3h-2.17a2.209,2.209,0,0,0-.82-1.64,3.069,3.069,0,0,0-2-.62,3.13,3.13,0,0,0-1.86.5,1.54,1.54,0,0,0-.69,1.31,1.43,1.43,0,0,0,.42,1.06,2.941,2.941,0,0,0,1,.66,15.356,15.356,0,0,0,1.75.56,21.008,21.008,0,0,1,2.28.75,4,4,0,0,1,1.51,1.11,2.94,2.94,0,0,1,.66,1.93,3.29,3.29,0,0,1-.6,1.93,3.883,3.883,0,0,1-1.67,1.34,6,6,0,0,1-2.49.49A6.762,6.762,0,0,1,2231,1025.77Z" transform="translate(-1956.7 -858.27)" fill="#632678"/>
          <path id="Trazado_756" data-name="Trazado 756" d="M2247.84,1016a5.889,5.889,0,0,1,2.25-2.34,7.17,7.17,0,0,1,7.26.33,5.5,5.5,0,0,1,2.06,3.24h-2.33a3.371,3.371,0,0,0-1.3-1.88,4,4,0,0,0-2.39-.69,3.83,3.83,0,0,0-3,1.27,5.229,5.229,0,0,0-1.139,3.61,5.309,5.309,0,0,0,1.14,3.64,3.81,3.81,0,0,0,3,1.29,4.1,4.1,0,0,0,2.38-.67,3.41,3.41,0,0,0,1.31-1.9h2.33a5.772,5.772,0,0,1-2.09,3.2,6.3,6.3,0,0,1-3.93,1.2,6.519,6.519,0,0,1-3.3-.83,5.82,5.82,0,0,1-2.25-2.36,7.518,7.518,0,0,1-.81-3.57,7.394,7.394,0,0,1,.81-3.54Z" transform="translate(-1956.7 -858.27)" fill="#632678"/>
          <path id="Trazado_757" data-name="Trazado 757" d="M2264.66,1025.45a6,6,0,0,1-2.33-2.37,7.21,7.21,0,0,1-.85-3.56,7.092,7.092,0,0,1,.87-3.54,6,6,0,0,1,2.37-2.35,7.27,7.27,0,0,1,6.71,0,6.059,6.059,0,0,1,2.37,2.34,7.62,7.62,0,0,1,0,7.11,6.261,6.261,0,0,1-2.42,2.37,7,7,0,0,1-3.379.83,6.73,6.73,0,0,1-3.341-.83Zm5.51-1.62a4.189,4.189,0,0,0,1.65-1.64,6,6,0,0,0,0-5.34,4.072,4.072,0,0,0-1.61-1.63,4.73,4.73,0,0,0-4.35,0,4,4,0,0,0-1.58,1.63,5.49,5.49,0,0,0-.6,2.67,5.661,5.661,0,0,0,.59,2.69,3.9,3.9,0,0,0,1.56,1.63,4.328,4.328,0,0,0,2.14.54,4.62,4.62,0,0,0,2.2-.55Z" transform="translate(-1956.7 -858.27)" fill="#632678"/>
          <path id="Trazado_758" data-name="Trazado 758" d="M2281.32,1013.4a5.081,5.081,0,0,1,2.58-.62V1015h-.57q-3.64,0-3.64,4v7.1h-2.17v-13h2.17v2.12A4.09,4.09,0,0,1,2281.32,1013.4Z" transform="translate(-1956.7 -858.27)" fill="#632678"/>
          <path id="Trazado_759" data-name="Trazado 759" d="M2290.49,1013.56a5.69,5.69,0,0,1,3-.75,6,6,0,0,1,3.15.83,5.911,5.911,0,0,1,2.23,2.34,7.346,7.346,0,0,1,.81,3.52,7.488,7.488,0,0,1-.81,3.52,6,6,0,0,1-5.38,3.26,5.691,5.691,0,0,1-2.94-.75,5.288,5.288,0,0,1-1.94-1.87v8.59h-2.17V1013h2.17v2.4a5.213,5.213,0,0,1,1.88-1.84Zm6.34,3.36a4.149,4.149,0,0,0-1.61-1.66,4.42,4.42,0,0,0-2.22-.57,4.34,4.34,0,0,0-2.21.58,4.242,4.242,0,0,0-1.61,1.69,5.72,5.72,0,0,0,0,5.14,4.242,4.242,0,0,0,1.61,1.69,4.449,4.449,0,0,0,4.43,0,4.17,4.17,0,0,0,1.611-1.69,6,6,0,0,0,0-5.18Z" transform="translate(-1956.7 -858.27)" fill="#632678"/>
          <path id="Trazado_760" data-name="Trazado 760" d="M2304.86,1025.45a6,6,0,0,1-2.33-2.37,7.317,7.317,0,0,1-.85-3.56,7.094,7.094,0,0,1,.87-3.54,6,6,0,0,1,2.37-2.35,7.27,7.27,0,0,1,6.71,0A6.058,6.058,0,0,1,2314,1016a7.62,7.62,0,0,1,0,7.11,6.261,6.261,0,0,1-2.42,2.37,7,7,0,0,1-3.38.83,6.731,6.731,0,0,1-3.34-.86Zm5.51-1.62a4.149,4.149,0,0,0,1.66-1.64,5.267,5.267,0,0,0,.63-2.67,5.376,5.376,0,0,0-.62-2.67,4,4,0,0,0-1.62-1.63,4.611,4.611,0,0,0-2.17-.53,4.529,4.529,0,0,0-2.17.53,4,4,0,0,0-1.59,1.63,5.6,5.6,0,0,0-.59,2.67,5.662,5.662,0,0,0,.58,2.69,3.9,3.9,0,0,0,1.56,1.63,4.361,4.361,0,0,0,2.14.54,4.62,4.62,0,0,0,2.19-.55Z" transform="translate(-1956.7 -858.27)" fill="#632678"/>
          <path id="Trazado_761" data-name="Trazado 761" d="M2321.53,1013.4a5,5,0,0,1,2.58-.62V1015h-.57q-3.64,0-3.64,4v7.1h-2.17v-13h2.17v2.12A4.09,4.09,0,0,1,2321.53,1013.4Z" transform="translate(-1956.7 -858.27)" fill="#632678"/>
          <path id="Trazado_762" data-name="Trazado 762" d="M2326.61,1016a6,6,0,0,1,2.22-2.34,6.089,6.089,0,0,1,3.16-.83,5.789,5.789,0,0,1,3,.73,5,5,0,0,1,1.88,1.86V1013H2339v13h-2.19v-2.43a5.1,5.1,0,0,1-1.91,1.89,5.749,5.749,0,0,1-3,.75,5.9,5.9,0,0,1-5.35-3.26,7.488,7.488,0,0,1-.81-3.52,7.348,7.348,0,0,1,.87-3.43Zm9.64,1a4.209,4.209,0,0,0-1.61-1.68,4.35,4.35,0,0,0-2.22-.58,4.419,4.419,0,0,0-2.22.57,4.169,4.169,0,0,0-1.59,1.66,5.89,5.89,0,0,0,0,5.18,4.191,4.191,0,0,0,1.59,1.69,4.47,4.47,0,0,0,4.44,0,4.171,4.171,0,0,0,1.61-1.69,5.458,5.458,0,0,0,.59-2.58,5.388,5.388,0,0,0-.59-2.57Z" transform="translate(-1956.7 -858.27)" fill="#632678"/>
          <path id="Trazado_763" data-name="Trazado 763" d="M2345.34,1014.81v7.69a1.82,1.82,0,0,0,.41,1.34,2,2,0,0,0,1.4.39h1.6v1.84h-2a3.86,3.86,0,0,1-2.71-.84,3.581,3.581,0,0,1-.91-2.73v-7.69h-1.68V1013h1.68v-3.28h2.17V1013h3.41v1.79Z" transform="translate(-1956.7 -858.27)" fill="#632678"/>
          <path id="Trazado_764" data-name="Trazado 764" d="M2351.43,1010.47a1.42,1.42,0,0,1-.42-1,1.451,1.451,0,0,1,1.47-1.43,1.32,1.32,0,0,1,1,.43,1.439,1.439,0,0,1,.42,1,1.42,1.42,0,0,1-.42,1,1.32,1.32,0,0,1-1,.43A1.43,1.43,0,0,1,2351.43,1010.47Zm2.1,2.55v13h-2.17v-13Z" transform="translate(-1956.7 -858.27)" fill="#632678"/>
          <path id="Trazado_765" data-name="Trazado 765" d="M2362.07,1024.07l4-11h2.31l-5.12,13h-2.52l-5.12-13H2358Z" transform="translate(-1956.7 -858.27)" fill="#632678"/>
          <path id="Trazado_766" data-name="Trazado 766" d="M2372.94,1025.45a6,6,0,0,1-2.33-2.37,7.211,7.211,0,0,1-.85-3.56,7.092,7.092,0,0,1,.87-3.54,6,6,0,0,1,2.37-2.35,7.269,7.269,0,0,1,6.71,0,6.06,6.06,0,0,1,2.371,2.34,7.62,7.62,0,0,1,0,7.11,6.261,6.261,0,0,1-2.42,2.37,7,7,0,0,1-3.38.83,6.73,6.73,0,0,1-3.341-.83Zm5.51-1.62a4.279,4.279,0,0,0,1.66-1.64,5.269,5.269,0,0,0,.63-2.67,5.384,5.384,0,0,0-.62-2.67,4,4,0,0,0-1.62-1.63,4.73,4.73,0,0,0-4.35,0,4,4,0,0,0-1.58,1.63,5.491,5.491,0,0,0-.59,2.67,5.657,5.657,0,0,0,.58,2.69,3.9,3.9,0,0,0,1.56,1.63,4.33,4.33,0,0,0,2.14.54,4.62,4.62,0,0,0,2.191-.55Z" transform="translate(-1956.7 -858.27)" fill="#632678"/>
          <path id="Trazado_767" data-name="Trazado 767" d="M2387.74,1025.77a4.489,4.489,0,0,1-1.88-1.43,3.74,3.74,0,0,1-.771-2.11h2.24a2.189,2.189,0,0,0,.92,1.6,3.471,3.471,0,0,0,2.15.62,3.14,3.14,0,0,0,1.95-.55,1.68,1.68,0,0,0,.72-1.38,1.36,1.36,0,0,0-.76-1.27,10.647,10.647,0,0,0-2.36-.83,17,17,0,0,1-2.37-.77,4.18,4.18,0,0,1-1.57-1.17,3.31,3.31,0,0,1-.06-3.86,4.066,4.066,0,0,1,1.69-1.33,6.157,6.157,0,0,1,2.5-.48,5.349,5.349,0,0,1,3.5,1.09,4,4,0,0,1,1.43,3h-2.17a2.239,2.239,0,0,0-.82-1.64,3.07,3.07,0,0,0-2-.62,3.13,3.13,0,0,0-1.86.5,1.539,1.539,0,0,0-.69,1.31,1.429,1.429,0,0,0,.42,1.06,2.859,2.859,0,0,0,1,.66,15.368,15.368,0,0,0,1.75.56,21.793,21.793,0,0,1,2.28.75,4,4,0,0,1,1.51,1.11,3,3,0,0,1,.66,1.93,3.288,3.288,0,0,1-.6,1.93,4,4,0,0,1-1.68,1.34,5.9,5.9,0,0,1-2.48.49,6.76,6.76,0,0,1-2.65-.51Z" transform="translate(-1956.7 -858.27)" fill="#632678"/>
        </g>
      </g>
    </g>
    <g id="Elipse_344" data-name="Elipse 344">
      <circle id="Elipse_346" data-name="Elipse 346" cx="85.42" cy="85.42" r="85.42" transform="translate(3.86 3.86)" fill="none"/>
      <path id="Trazado_768" data-name="Trazado 768" d="M2046,1036.83a89.28,89.28,0,1,1,89.28-89.28,89.28,89.28,0,0,1-89.28,89.28Zm0-166.56a77.28,77.28,0,1,0,77.28,77.28A77.28,77.28,0,0,0,2046,870.27Z" transform="translate(-1956.7 -858.27)" fill="#632678"/>
    </g>
  </g>
</svg>
